<?xml version="1.0" encoding="UTF-8"?>
<svg width="300" height="300" viewBox="0 0 300 300" fill="none" xmlns="http://www.w3.org/2000/svg">
  <!-- Dashboard elements -->
  <g opacity="0.5">
    <!-- Chart Icon -->
    <g transform="translate(30, 30)">
      <rect x="0" y="20" width="60" height="40" rx="2" fill="#0d6a30" opacity="0.5" />
      <rect x="70" y="10" width="60" height="50" rx="2" fill="#0d6a30" opacity="0.7" />
      <rect x="140" y="0" width="60" height="60" rx="2" fill="#0d6a30" opacity="0.9" />
      <line x1="0" y1="70" x2="200" y2="70" stroke="#0d6a30" stroke-width="2" />
    </g>
    
    <!-- Speedometer -->
    <g transform="translate(150, 150)">
      <circle cx="0" cy="0" r="40" fill="none" stroke="#0d6a30" stroke-width="4" opacity="0.6" />
      <path d="M0,0 L-20,-30" stroke="#0d6a30" stroke-width="3" />
      <circle cx="0" cy="0" r="5" fill="#0d6a30" />
    </g>
    
    <!-- Settings Gear -->
    <g transform="translate(50, 200)">
      <circle cx="0" cy="0" r="20" fill="none" stroke="#0d6a30" stroke-width="3" opacity="0.8" />
      <path d="M0,-25 L0,-15 M0,15 L0,25 M-25,0 L-15,0 M15,0 L25,0 M-18,-18 L-12,-12 M-18,18 L-12,12 M18,-18 L12,-12 M18,18 L12,12" stroke="#0d6a30" stroke-width="3" />
    </g>
    
    <!-- Calendar -->
    <g transform="translate(210, 220)">
      <rect x="-25" y="-25" width="50" height="50" rx="3" fill="none" stroke="#0d6a30" stroke-width="3" opacity="0.7" />
      <line x1="-25" y1="-10" x2="25" y2="-10" stroke="#0d6a30" stroke-width="2" />
      <line x1="-10" y1="-25" x2="-10" y2="-10" stroke="#0d6a30" stroke-width="1.5" />
      <line x1="10" y1="-25" x2="10" y2="-10" stroke="#0d6a30" stroke-width="1.5" />
    </g>
  </g>
</svg>
