<?xml version="1.0" encoding="UTF-8"?>
<svg width="300" height="300" viewBox="0 0 300 300" fill="none" xmlns="http://www.w3.org/2000/svg">
  <!-- Dashboard elements -->
  <g opacity="0.5">
    <!-- Plate and food -->
    <g transform="translate(50, 80)">
      <circle cx="40" cy="40" r="40" fill="none" stroke="#0d6a30" stroke-width="3" />
      <path d="M20,40 Q40,20 60,40" stroke="#0d6a30" stroke-width="2" />
      <circle cx="40" cy="60" r="5" fill="#0d6a30" />
      <circle cx="25" cy="45" r="5" fill="#0d6a30" />
      <circle cx="55" cy="45" r="5" fill="#0d6a30" />
    </g>

    <!-- Gauge -->
    <g transform="translate(190, 60)">
      <path d="M0,0 A60,60 0 0,1 0,120 A60,60 0 0,1 0,0" fill="none" stroke="#0d6a30" stroke-width="3" />
      <path d="M0,0 L-35,60" stroke="#0d6a30" stroke-width="3" />
      <circle cx="0" cy="0" r="10" fill="#0d6a30" />
      <path d="M-48,48 L-54,42 M54,42 L48,48 M-5,110 L5,110" stroke="#0d6a30" stroke-width="3" />
    </g>

    <!-- Boxes/stats -->
    <g transform="translate(60, 180)">
      <rect x="0" y="0" width="40" height="40" rx="5" fill="none" stroke="#0d6a30" stroke-width="2" />
      <line x1="10" y1="10" x2="30" y2="10" stroke="#0d6a30" stroke-width="2" />
      <line x1="10" y1="20" x2="30" y2="20" stroke="#0d6a30" stroke-width="2" />
      <line x1="10" y1="30" x2="20" y2="30" stroke="#0d6a30" stroke-width="2" />
    </g>
    <g transform="translate(130, 180)">
      <rect x="0" y="0" width="40" height="40" rx="5" fill="none" stroke="#0d6a30" stroke-width="2" />
      <line x1="10" y1="10" x2="30" y2="10" stroke="#0d6a30" stroke-width="2" />
      <line x1="10" y1="20" x2="30" y2="20" stroke="#0d6a30" stroke-width="2" />
      <line x1="10" y1="30" x2="20" y2="30" stroke="#0d6a30" stroke-width="2" />
    </g>
    <g transform="translate(200, 180)">
      <rect x="0" y="0" width="40" height="40" rx="5" fill="none" stroke="#0d6a30" stroke-width="2" />
      <line x1="10" y1="10" x2="30" y2="10" stroke="#0d6a30" stroke-width="2" />
      <line x1="10" y1="20" x2="30" y2="20" stroke="#0d6a30" stroke-width="2" />
      <line x1="10" y1="30" x2="20" y2="30" stroke="#0d6a30" stroke-width="2" />
    </g>

    <!-- Calendar -->
    <g transform="translate(180, 230)">
      <rect x="0" y="0" width="40" height="40" rx="5" fill="none" stroke="#0d6a30" stroke-width="2" />
      <line x1="0" y1="10" x2="40" y2="10" stroke="#0d6a30" stroke-width="1.5" />
      <line x1="10" y1="0" x2="10" y2="40" stroke="#0d6a30" stroke-width="1" />
      <line x1="20" y1="0" x2="20" y2="40" stroke="#0d6a30" stroke-width="1" />
      <line x1="30" y1="0" x2="30" y2="40" stroke="#0d6a30" stroke-width="1" />
      <line x1="0" y1="20" x2="40" y2="20" stroke="#0d6a30" stroke-width="1" />
      <line x1="0" y1="30" x2="40" y2="30" stroke="#0d6a30" stroke-width="1" />
    </g>
  </g>
</svg>
