<?xml version="1.0" encoding="UTF-8"?>
<svg width="200" height="200" viewBox="0 0 200 200" fill="none" xmlns="http://www.w3.org/2000/svg">
  <!-- Apple -->
  <g transform="translate(20, 30)" fill="#0d6a30" opacity="0.7">
    <path d="M30,0 C25,0 20,5 20,15 L15,15 C5,15 0,25 0,40 C0,60 15,80 30,80 C45,80 60,60 60,40 C60,25 55,15 45,15 L40,15 C40,5 35,0 30,0 Z" />
    <path d="M30,5 C28,5 25,7 25,15 L35,15 C35,7 32,5 30,5 Z" fill="#FFFFFF" opacity="0.3" />
  </g>
  
  <!-- Orange -->
  <g transform="translate(120, 40)" fill="#e67e22" opacity="0.7">
    <circle cx="30" cy="30" r="30" />
    <path d="M30,0 L30,60" stroke="#0d6a30" stroke-width="3" />
    <circle cx="30" cy="30" r="20" fill="#FFFFFF" opacity="0.2" />
  </g>
  
  <!-- Carrot -->
  <g transform="translate(50, 120)" fill="#e67e22" opacity="0.7">
    <path d="M20,0 L30,50 L10,50 Z" />
    <path d="M20,0 C20,0 10,-10 0,-10 M20,0 C20,0 30,-10 40,-10 M20,0 C20,0 20,-15 20,-20" stroke="#0d6a30" stroke-width="2" />
  </g>
  
  <!-- Leaf -->
  <g transform="translate(130, 130) rotate(45)" fill="#0d6a30" opacity="0.7">
    <path d="M0,0 C0,0 30,10 30,30 C30,45 15,50 0,50 C-15,50 -30,45 -30,30 C-30,10 0,0 0,0 Z" />
    <path d="M0,0 L0,50" stroke="#FFFFFF" stroke-width="2" opacity="0.3" />
  </g>
</svg>
