<?xml version="1.0" encoding="UTF-8"?>
<svg width="400" height="400" viewBox="0 0 400 400" fill="none" xmlns="http://www.w3.org/2000/svg">
  <!-- Food Pattern Elements -->
  <g opacity="0.5">
    <!-- Apple -->
    <g transform="translate(50, 50)">
      <circle cx="20" cy="20" r="20" fill="#0d6a30" opacity="0.6" />
      <path d="M20,0 Q25,-5 30,0" stroke="#0d6a30" stroke-width="2" />
    </g>

    <!-- Broccoli -->
    <g transform="translate(120, 70)">
      <circle cx="0" cy="0" r="15" fill="#0d6a30" opacity="0.5" />
      <circle cx="10" cy="-10" r="10" fill="#0d6a30" opacity="0.5" />
      <circle cx="-10" cy="-10" r="10" fill="#0d6a30" opacity="0.5" />
      <circle cx="0" cy="-15" r="8" fill="#0d6a30" opacity="0.5" />
      <path d="M0,0 L0,20" stroke="#0d6a30" stroke-width="3" />
    </g>

    <!-- Carrot -->
    <g transform="translate(200, 50)">
      <path d="M0,0 L15,30 L-15,30 Z" fill="#0d6a30" opacity="0.6" />
      <path d="M0,-5 C0,-5 -5,-15 0,-20 C5,-15 0,-5 0,-5" stroke="#0d6a30" stroke-width="1.5" fill="#0d6a30" opacity="0.5" />
    </g>

    <!-- Bread -->
    <g transform="translate(300, 60)">
      <rect x="-20" y="-10" width="40" height="20" rx="10" fill="#0d6a30" opacity="0.4" />
      <line x1="-15" y1="0" x2="15" y2="0" stroke="#0d6a30" stroke-width="1" />
    </g>

    <!-- Milk Carton -->
    <g transform="translate(40, 150)">
      <path d="M-10,-20 L10,-20 L15,0 L15,30 L-15,30 L-15,0 Z" fill="none" stroke="#0d6a30" stroke-width="2" />
      <rect x="-5" y="-10" width="10" height="5" fill="#0d6a30" opacity="0.5" />
    </g>

    <!-- Fish -->
    <g transform="translate(130, 150)">
      <path d="M-20,0 Q0,-20 20,0 Q0,20 -20,0 Z" fill="none" stroke="#0d6a30" stroke-width="2" />
      <circle cx="10" cy="-5" r="3" fill="#0d6a30" />
      <path d="M-20,0 L-30,10 M-20,0 L-30,-10" stroke="#0d6a30" stroke-width="1.5" />
    </g>

    <!-- Egg -->
    <g transform="translate(220, 170)">
      <ellipse cx="0" cy="0" rx="15" ry="20" fill="none" stroke="#0d6a30" stroke-width="2" />
      <circle cx="0" cy="-5" r="5" fill="#0d6a30" opacity="0.4" />
    </g>

    <!-- Pepper -->
    <g transform="translate(300, 150)">
      <path d="M0,-15 C20,-15 20,15 0,30 C-20,15 -20,-15 0,-15 Z" fill="none" stroke="#0d6a30" stroke-width="2" />
      <path d="M0,-15 L0,-25" stroke="#0d6a30" stroke-width="2" />
    </g>

    <!-- Tomato -->
    <g transform="translate(50, 270)">
      <circle cx="0" cy="0" r="20" fill="none" stroke="#0d6a30" stroke-width="2" />
      <path d="M0,-20 C-5,-25 5,-25 0,-20" stroke="#0d6a30" stroke-width="1.5" />
      <path d="M0,-20 L0,-25" stroke="#0d6a30" stroke-width="1.5" />
    </g>

    <!-- Banana -->
    <g transform="translate(150, 250)">
      <path d="M-20,0 C-10,20 20,20 20,-10" fill="none" stroke="#0d6a30" stroke-width="2" />
    </g>

    <!-- Coffee Cup -->
    <g transform="translate(250, 270)">
      <path d="M-15,0 L-10,-20 L10,-20 L15,0" fill="none" stroke="#0d6a30" stroke-width="2" />
      <path d="M-15,0 Q-15,15 0,15 Q15,15 15,0" fill="none" stroke="#0d6a30" stroke-width="2" />
      <path d="M15,-10 Q25,-10 25,0 Q25,10 15,0" fill="none" stroke="#0d6a30" stroke-width="1.5" />
    </g>

    <!-- Orange -->
    <g transform="translate(340, 260)">
      <circle cx="0" cy="0" r="15" fill="none" stroke="#0d6a30" stroke-width="2" />
      <path d="M0,-15 C-2,-22 2,-22 0,-15" stroke="#0d6a30" stroke-width="1.5" />
      <path d="M-5,-12 L5,-12 M-10,-5 L10,-5 M-10,5 L10,5" stroke="#0d6a30" stroke-width="0.8" />
    </g>
  </g>
</svg>
