<?xml version="1.0" encoding="UTF-8"?>
<svg width="800px" height="800px" viewBox="0 0 800 800" version="1.1" xmlns="http://www.w3.org/2000/svg">
  <title>Geometric Pattern</title>
  <g stroke="none" stroke-width="1" fill="none" fill-rule="evenodd">
    <!-- Circle Patterns -->
    <circle cx="100" cy="100" r="50" fill="#0d6a30" opacity="0.2"/>
    <circle cx="300" cy="100" r="30" fill="#25a244" opacity="0.15"/>
    <circle cx="500" cy="100" r="40" fill="#0d6a30" opacity="0.1"/>
    <circle cx="700" cy="100" r="25" fill="#25a244" opacity="0.2"/>
    
    <!-- Square Patterns -->
    <rect x="50" y="250" width="100" height="100" rx="5" fill="#0d6a30" opacity="0.15"/>
    <rect x="250" y="250" width="100" height="100" rx="10" fill="#25a244" opacity="0.1"/>
    <rect x="450" y="250" width="100" height="100" rx="15" fill="#0d6a30" opacity="0.2"/>
    <rect x="650" y="250" width="100" height="100" rx="20" fill="#25a244" opacity="0.15"/>
    
    <!-- Triangle Patterns -->
    <polygon points="100,450 50,550 150,550" fill="#0d6a30" opacity="0.2"/>
    <polygon points="300,450 250,550 350,550" fill="#25a244" opacity="0.15"/>
    <polygon points="500,450 450,550 550,550" fill="#0d6a30" opacity="0.1"/>
    <polygon points="700,450 650,550 750,550" fill="#25a244" opacity="0.2"/>
    
    <!-- Line Patterns -->
    <line x1="0" y1="650" x2="800" y2="650" stroke="#0d6a30" stroke-width="5" opacity="0.1"/>
    <line x1="0" y1="675" x2="800" y2="675" stroke="#25a244" stroke-width="3" opacity="0.15"/>
    <line x1="0" y1="700" x2="800" y2="700" stroke="#0d6a30" stroke-width="2" opacity="0.2"/>
    <line x1="0" y1="725" x2="800" y2="725" stroke="#25a244" stroke-width="1" opacity="0.1"/>
    
    <!-- Grid Pattern -->
    <path d="M0,0 L20,0 L20,20 L0,20 Z" fill="#0d6a30" opacity="0.05" transform="translate(0, 0)"/>
    <path d="M0,0 L20,0 L20,20 L0,20 Z" fill="#0d6a30" opacity="0.05" transform="translate(40, 0)"/>
    <path d="M0,0 L20,0 L20,20 L0,20 Z" fill="#0d6a30" opacity="0.05" transform="translate(80, 0)"/>
    <path d="M0,0 L20,0 L20,20 L0,20 Z" fill="#0d6a30" opacity="0.05" transform="translate(120, 0)"/>
    <path d="M0,0 L20,0 L20,20 L0,20 Z" fill="#0d6a30" opacity="0.05" transform="translate(0, 40)"/>
    <path d="M0,0 L20,0 L20,20 L0,20 Z" fill="#0d6a30" opacity="0.05" transform="translate(40, 40)"/>
    <path d="M0,0 L20,0 L20,20 L0,20 Z" fill="#0d6a30" opacity="0.05" transform="translate(80, 40)"/>
    <path d="M0,0 L20,0 L20,20 L0,20 Z" fill="#0d6a30" opacity="0.05" transform="translate(120, 40)"/>
  </g>
</svg>
