<?xml version="1.0" encoding="UTF-8"?>
<svg width="270" height="270" viewBox="0 0 270 270" fill="none" xmlns="http://www.w3.org/2000/svg">
  <!-- Insights Pattern Elements -->
  <g opacity="0.5">
    <!-- Bar Chart -->
    <g transform="translate(50, 50)">
      <line x1="0" y1="0" x2="0" y2="60" stroke="#0d6a30" stroke-width="2" />
      <line x1="0" y1="60" x2="80" y2="60" stroke="#0d6a30" stroke-width="2" />
      
      <rect x="10" y="20" width="10" height="40" fill="none" stroke="#0d6a30" stroke-width="1.5" />
      <rect x="30" y="30" width="10" height="30" fill="none" stroke="#0d6a30" stroke-width="1.5" />
      <rect x="50" y="10" width="10" height="50" fill="none" stroke="#0d6a30" stroke-width="1.5" />
      <rect x="70" y="40" width="10" height="20" fill="none" stroke="#0d6a30" stroke-width="1.5" />
      
      <line x1="0" y1="20" x2="-3" y2="20" stroke="#0d6a30" stroke-width="1" />
      <line x1="0" y1="40" x2="-3" y2="40" stroke="#0d6a30" stroke-width="1" />
    </g>

    <!-- Pie Chart -->
    <g transform="translate(180, 50)">
      <circle cx="0" cy="0" r="30" fill="none" stroke="#0d6a30" stroke-width="2" />
      <path d="M0,0 L30,0 A30,30 0 0,1 15,25.98 Z" fill="none" stroke="#0d6a30" stroke-width="1.5" />
      <path d="M0,0 L15,25.98 A30,30 0 0,1 -30,0 Z" fill="none" stroke="#0d6a30" stroke-width="1.5" />
      <path d="M0,0 L-30,0 A30,30 0 0,1 0,-30 Z" fill="none" stroke="#0d6a30" stroke-width="1.5" />
      <path d="M0,0 L0,-30 A30,30 0 0,1 30,0 Z" fill="none" stroke="#0d6a30" stroke-width="1.5" />
    </g>

    <!-- Line Graph -->
    <g transform="translate(60, 150)">
      <line x1="0" y1="0" x2="0" y2="60" stroke="#0d6a30" stroke-width="2" />
      <line x1="0" y1="60" x2="100" y2="60" stroke="#0d6a30" stroke-width="2" />
      
      <path d="M10,50 L30,20 L50,40 L70,10 L90,30" fill="none" stroke="#0d6a30" stroke-width="1.5" />
      
      <circle cx="10" cy="50" r="3" fill="#0d6a30" />
      <circle cx="30" cy="20" r="3" fill="#0d6a30" />
      <circle cx="50" cy="40" r="3" fill="#0d6a30" />
      <circle cx="70" cy="10" r="3" fill="#0d6a30" />
      <circle cx="90" cy="30" r="3" fill="#0d6a30" />
      
      <line x1="0" y1="20" x2="-3" y2="20" stroke="#0d6a30" stroke-width="1" />
      <line x1="0" y1="40" x2="-3" y2="40" stroke="#0d6a30" stroke-width="1" />
    </g>

    <!-- Data Table -->
    <g transform="translate(200, 150)">
      <rect x="-40" y="-20" width="80" height="60" rx="2" fill="none" stroke="#0d6a30" stroke-width="2" />
      <line x1="-40" y1="-5" x2="40" y2="-5" stroke="#0d6a30" stroke-width="1" />
      <line x1="-40" y1="10" x2="40" y2="10" stroke="#0d6a30" stroke-width="1" />
      <line x1="-40" y1="25" x2="40" y2="25" stroke="#0d6a30" stroke-width="1" />
      
      <line x1="-20" y1="-20" x2="-20" y2="40" stroke="#0d6a30" stroke-width="1" />
      <line x1="0" y1="-20" x2="0" y2="40" stroke="#0d6a30" stroke-width="1" />
      <line x1="20" y1="-20" x2="20" y2="40" stroke="#0d6a30" stroke-width="1" />
    </g>

    <!-- Gauge -->
    <g transform="translate(70, 240)">
      <path d="M-30,0 A30,30 0 0,1 30,0" fill="none" stroke="#0d6a30" stroke-width="2" />
      <path d="M0,0 L-15,-25" stroke="#0d6a30" stroke-width="1.5" />
      <circle cx="0" cy="0" r="5" fill="#0d6a30" opacity="0.7" />
      <path d="M-25,-15 L-22,-13 M-15,-25 L-13,-22 M0,-30 L0,-27 M15,-25 L13,-22 M25,-15 L22,-13" stroke="#0d6a30" stroke-width="1" />
    </g>

    <!-- Scatter Plot -->
    <g transform="translate(200, 230)">
      <rect x="-30" y="-30" width="60" height="60" rx="2" fill="none" stroke="#0d6a30" stroke-width="2" />
      <line x1="-30" y1="0" x2="30" y2="0" stroke="#0d6a30" stroke-width="1" />
      <line x1="0" y1="-30" x2="0" y2="30" stroke="#0d6a30" stroke-width="1" />
      
      <circle cx="-20" cy="-15" r="2" fill="#0d6a30" />
      <circle cx="-10" cy="5" r="2" fill="#0d6a30" />
      <circle cx="5" cy="-20" r="2" fill="#0d6a30" />
      <circle cx="15" cy="10" r="2" fill="#0d6a30" />
      <circle cx="20" cy="-5" r="2" fill="#0d6a30" />
      <circle cx="-15" cy="15" r="2" fill="#0d6a30" />
      <circle cx="10" cy="20" r="2" fill="#0d6a30" />
    </g>
  </g>
</svg>
