<?xml version="1.0" encoding="UTF-8"?>
<svg width="270" height="270" viewBox="0 0 270 270" fill="none" xmlns="http://www.w3.org/2000/svg">
  <!-- Insights elements -->
  <g opacity="0.5">
    <!-- Bar Chart -->
    <g transform="translate(30, 30)">
      <rect x="0" y="0" width="20" height="60" fill="#0d6a30" opacity="0.3" />
      <rect x="30" y="0" width="20" height="90" fill="#0d6a30" opacity="0.5" />
      <rect x="60" y="0" width="20" height="40" fill="#0d6a30" opacity="0.3" />
      <rect x="90" y="0" width="20" height="70" fill="#0d6a30" opacity="0.5" />
      <line x1="0" y1="100" x2="110" y2="100" stroke="#0d6a30" stroke-width="2" />
      <line x1="0" y1="100" x2="0" y2="0" stroke="#0d6a30" stroke-width="2" />
    </g>
    
    <!-- Pie Chart -->
    <g transform="translate(190, 70)">
      <circle cx="0" cy="0" r="40" fill="none" stroke="#0d6a30" stroke-width="2" />
      <path d="M0,0 L40,0 A40,40 0 0,1 28,28 Z" fill="#0d6a30" opacity="0.6" />
      <path d="M0,0 L28,28 A40,40 0 0,1 -28,28 Z" fill="#0d6a30" opacity="0.4" />
      <path d="M0,0 L-28,28 A40,40 0 0,1 -40,0 Z" fill="#0d6a30" opacity="0.5" />
      <path d="M0,0 L-40,0 A40,40 0 0,1 0,-40 Z" fill="#0d6a30" opacity="0.3" />
      <path d="M0,0 L0,-40 A40,40 0 0,1 40,0 Z" fill="#0d6a30" opacity="0.7" />
    </g>
    
    <!-- Line Chart -->
    <g transform="translate(40, 170)">
      <polyline points="0,40 30,30 60,50 90,10 120,30 150,20" fill="none" stroke="#0d6a30" stroke-width="3" />
      <circle cx="0" cy="40" r="4" fill="#0d6a30" />
      <circle cx="30" cy="30" r="4" fill="#0d6a30" />
      <circle cx="60" cy="50" r="4" fill="#0d6a30" />
      <circle cx="90" cy="10" r="4" fill="#0d6a30" />
      <circle cx="120" cy="30" r="4" fill="#0d6a30" />
      <circle cx="150" cy="20" r="4" fill="#0d6a30" />
      <line x1="0" y1="70" x2="150" y2="70" stroke="#0d6a30" stroke-width="2" />
      <line x1="0" y1="70" x2="0" y2="0" stroke="#0d6a30" stroke-width="2" />
    </g>
    
    <!-- Lightbulb -->
    <g transform="translate(220, 170)">
      <circle cx="0" cy="0" r="20" fill="#0d6a30" opacity="0.5" />
      <path d="M0,20 L0,35" stroke="#0d6a30" stroke-width="3" />
      <path d="M-10,25 L10,25" stroke="#0d6a30" stroke-width="2" />
      <path d="M-8,30 L8,30" stroke="#0d6a30" stroke-width="2" />
      <path d="M-6,35 L6,35" stroke="#0d6a30" stroke-width="2" />
      <path d="M-15,-15 L-20,-20 M15,-15 L20,-20 M-15,15 L-20,20 M15,15 L20,20" stroke="#0d6a30" stroke-width="2" />
    </g>
  </g>
</svg>
