<?xml version="1.0" encoding="UTF-8"?>
<svg width="250" height="250" viewBox="0 0 250 250" fill="none" xmlns="http://www.w3.org/2000/svg">
  <!-- Inventory Pattern Elements -->
  <g opacity="0.5">
    <!-- Shelf 1 -->
    <g transform="translate(20, 30)">
      <rect x="0" y="0" width="80" height="5" rx="2" fill="#0d6a30" opacity="0.7" />
      <rect x="5" y="-15" width="20" height="15" rx="2" fill="none" stroke="#0d6a30" stroke-width="1.5" />
      <rect x="30" y="-20" width="15" height="20" rx="2" fill="none" stroke="#0d6a30" stroke-width="1.5" />
      <rect x="50" y="-12" width="25" height="12" rx="2" fill="none" stroke="#0d6a30" stroke-width="1.5" />
      <line x1="5" y1="5" x2="5" y2="25" stroke="#0d6a30" stroke-width="1.5" />
      <line x1="75" y1="5" x2="75" y2="25" stroke="#0d6a30" stroke-width="1.5" />
    </g>

    <!-- Shelf 2 -->
    <g transform="translate(130, 50)">
      <rect x="0" y="0" width="100" height="5" rx="2" fill="#0d6a30" opacity="0.7" />
      <rect x="10" y="-25" width="15" height="25" rx="2" fill="none" stroke="#0d6a30" stroke-width="1.5" />
      <circle cx="35" cy="-12" r="7" fill="none" stroke="#0d6a30" stroke-width="1.5" />
      <rect x="50" y="-15" width="20" height="15" rx="2" fill="none" stroke="#0d6a30" stroke-width="1.5" />
      <rect x="75" y="-20" width="15" height="20" rx="2" fill="none" stroke="#0d6a30" stroke-width="1.5" />
      <line x1="5" y1="5" x2="5" y2="25" stroke="#0d6a30" stroke-width="1.5" />
      <line x1="95" y1="5" x2="95" y2="25" stroke="#0d6a30" stroke-width="1.5" />
    </g>

    <!-- Refrigerator -->
    <g transform="translate(40, 100)">
      <rect x="0" y="0" width="40" height="70" rx="2" fill="none" stroke="#0d6a30" stroke-width="2" />
      <line x1="0" y1="40" x2="40" y2="40" stroke="#0d6a30" stroke-width="1.5" />
      <rect x="30" y="20" width="5" height="10" rx="2" fill="#0d6a30" opacity="0.7" />
      <rect x="30" y="50" width="5" height="10" rx="2" fill="#0d6a30" opacity="0.7" />
    </g>

    <!-- Storage Box -->
    <g transform="translate(120, 110)">
      <rect x="0" y="0" width="50" height="40" rx="2" fill="none" stroke="#0d6a30" stroke-width="2" />
      <line x1="0" y1="10" x2="50" y2="10" stroke="#0d6a30" stroke-width="1" />
      <line x1="25" y1="10" x2="25" y2="40" stroke="#0d6a30" stroke-width="1" />
      <rect x="20" y="0" width="10" height="5" rx="2" fill="#0d6a30" opacity="0.7" />
    </g>

    <!-- Pantry -->
    <g transform="translate(180, 100)">
      <rect x="0" y="0" width="35" height="60" rx="2" fill="none" stroke="#0d6a30" stroke-width="2" />
      <line x1="0" y1="20" x2="35" y2="20" stroke="#0d6a30" stroke-width="1" />
      <line x1="0" y1="40" x2="35" y2="40" stroke="#0d6a30" stroke-width="1" />
      <rect x="28" y="30" width="4" height="4" rx="1" fill="#0d6a30" opacity="0.7" />
    </g>

    <!-- Canned Goods -->
    <g transform="translate(50, 200)">
      <circle cx="0" cy="0" r="10" fill="none" stroke="#0d6a30" stroke-width="1.5" />
      <circle cx="25" cy="0" r="10" fill="none" stroke="#0d6a30" stroke-width="1.5" />
      <circle cx="50" cy="0" r="10" fill="none" stroke="#0d6a30" stroke-width="1.5" />
      <rect x="-7" y="-5" width="14" height="3" rx="1" fill="#0d6a30" opacity="0.5" />
      <rect x="18" y="-5" width="14" height="3" rx="1" fill="#0d6a30" opacity="0.5" />
      <rect x="43" y="-5" width="14" height="3" rx="1" fill="#0d6a30" opacity="0.5" />
    </g>

    <!-- Shopping List -->
    <g transform="translate(140, 180)">
      <rect x="0" y="0" width="30" height="40" rx="2" fill="none" stroke="#0d6a30" stroke-width="1.5" />
      <line x1="5" y1="10" x2="25" y2="10" stroke="#0d6a30" stroke-width="1" />
      <line x1="5" y1="15" x2="20" y2="15" stroke="#0d6a30" stroke-width="1" />
      <line x1="5" y1="20" x2="25" y2="20" stroke="#0d6a30" stroke-width="1" />
      <line x1="5" y1="25" x2="15" y2="25" stroke="#0d6a30" stroke-width="1" />
      <line x1="5" y1="30" x2="20" y2="30" stroke="#0d6a30" stroke-width="1" />
    </g>

    <!-- Jar -->
    <g transform="translate(200, 190)">
      <path d="M-10,0 Q-10,-10 0,-10 Q10,-10 10,0 L10,20 Q10,30 0,30 Q-10,30 -10,20 Z" fill="none" stroke="#0d6a30" stroke-width="1.5" />
      <path d="M-5,-10 L-5,-15 L5,-15 L5,-10" stroke="#0d6a30" stroke-width="1" />
      <line x1="-10" y1="0" x2="10" y2="0" stroke="#0d6a30" stroke-width="1" />
    </g>
  </g>
</svg>
