<?xml version="1.0" encoding="UTF-8"?>
<svg width="320" height="320" viewBox="0 0 320 320" fill="none" xmlns="http://www.w3.org/2000/svg">
  <!-- Meal Planning Pattern Elements -->
  <g opacity="0.5">
    <!-- Calendar -->
    <g transform="translate(50, 50)">
      <rect x="0" y="0" width="70" height="70" rx="3" fill="none" stroke="#0d6a30" stroke-width="2" />
      <line x1="0" y1="15" x2="70" y2="15" stroke="#0d6a30" stroke-width="1.5" />
      <line x1="10" y1="0" x2="10" y2="70" stroke="#0d6a30" stroke-width="1" />
      <line x1="20" y1="0" x2="20" y2="70" stroke="#0d6a30" stroke-width="1" />
      <line x1="30" y1="0" x2="30" y2="70" stroke="#0d6a30" stroke-width="1" />
      <line x1="40" y1="0" x2="40" y2="70" stroke="#0d6a30" stroke-width="1" />
      <line x1="50" y1="0" x2="50" y2="70" stroke="#0d6a30" stroke-width="1" />
      <line x1="60" y1="0" x2="60" y2="70" stroke="#0d6a30" stroke-width="1" />
      <line x1="0" y1="25" x2="70" y2="25" stroke="#0d6a30" stroke-width="1" />
      <line x1="0" y1="35" x2="70" y2="35" stroke="#0d6a30" stroke-width="1" />
      <line x1="0" y1="45" x2="70" y2="45" stroke="#0d6a30" stroke-width="1" />
      <line x1="0" y1="55" x2="70" y2="55" stroke="#0d6a30" stroke-width="1" />
      <line x1="0" y1="65" x2="70" y2="65" stroke="#0d6a30" stroke-width="1" />
      
      <circle cx="25" cy="30" r="3" fill="#0d6a30" opacity="0.7" />
      <circle cx="55" cy="50" r="3" fill="#0d6a30" opacity="0.7" />
      <circle cx="15" cy="60" r="3" fill="#0d6a30" opacity="0.7" />
      <circle cx="45" cy="40" r="3" fill="#0d6a30" opacity="0.7" />
    </g>

    <!-- Clock -->
    <g transform="translate(160, 40)">
      <circle cx="0" cy="0" r="25" fill="none" stroke="#0d6a30" stroke-width="2" />
      <line x1="0" y1="0" x2="0" y2="-15" stroke="#0d6a30" stroke-width="1.5" />
      <line x1="0" y1="0" x2="10" y2="5" stroke="#0d6a30" stroke-width="1.5" />
      <circle cx="0" cy="0" r="2" fill="#0d6a30" />
      <line x1="0" y1="-25" x2="0" y2="-20" stroke="#0d6a30" stroke-width="1.5" />
      <line x1="25" y1="0" x2="20" y2="0" stroke="#0d6a30" stroke-width="1.5" />
      <line x1="0" y1="25" x2="0" y2="20" stroke="#0d6a30" stroke-width="1.5" />
      <line x1="-25" y1="0" x2="-20" y2="0" stroke="#0d6a30" stroke-width="1.5" />
    </g>

    <!-- Menu -->
    <g transform="translate(250, 50)">
      <rect x="-30" y="-30" width="60" height="80" rx="3" fill="none" stroke="#0d6a30" stroke-width="2" />
      <line x1="-20" y1="-15" x2="20" y2="-15" stroke="#0d6a30" stroke-width="1.5" />
      <line x1="-20" y1="-10" x2="10" y2="-10" stroke="#0d6a30" stroke-width="1" />
      
      <line x1="-20" y1="0" x2="20" y2="0" stroke="#0d6a30" stroke-width="1.5" />
      <line x1="-20" y1="5" x2="10" y2="5" stroke="#0d6a30" stroke-width="1" />
      
      <line x1="-20" y1="15" x2="20" y2="15" stroke="#0d6a30" stroke-width="1.5" />
      <line x1="-20" y1="20" x2="10" y2="20" stroke="#0d6a30" stroke-width="1" />
      
      <line x1="-20" y1="30" x2="20" y2="30" stroke="#0d6a30" stroke-width="1.5" />
      <line x1="-20" y1="35" x2="10" y2="35" stroke="#0d6a30" stroke-width="1" />
    </g>

    <!-- Plate with Food -->
    <g transform="translate(60, 160)">
      <circle cx="0" cy="0" r="30" fill="none" stroke="#0d6a30" stroke-width="2" />
      <circle cx="0" cy="0" r="20" fill="none" stroke="#0d6a30" stroke-width="1" />
      <ellipse cx="-8" cy="-5" rx="5" ry="8" fill="#0d6a30" opacity="0.5" />
      <ellipse cx="8" cy="-5" rx="5" ry="8" fill="#0d6a30" opacity="0.5" />
      <path d="M-10,10 C-5,15 5,15 10,10" stroke="#0d6a30" stroke-width="1.5" fill="none" />
    </g>

    <!-- Nutrition Chart -->
    <g transform="translate(160, 180)">
      <rect x="-30" y="-30" width="60" height="60" rx="3" fill="none" stroke="#0d6a30" stroke-width="2" />
      <path d="M-30,0 L30,0 M0,-30 L0,30" stroke="#0d6a30" stroke-width="1" />
      <path d="M-20,-20 L20,20 M-20,20 L20,-20" stroke="#0d6a30" stroke-width="1" opacity="0.6" />
      <circle cx="0" cy="0" r="15" fill="none" stroke="#0d6a30" stroke-width="1" />
      
      <rect x="-25" y="-25" width="10" height="10" rx="1" fill="#0d6a30" opacity="0.4" />
      <rect x="15" y="-25" width="10" height="10" rx="1" fill="#0d6a30" opacity="0.4" />
      <rect x="-25" y="15" width="10" height="10" rx="1" fill="#0d6a30" opacity="0.4" />
      <rect x="15" y="15" width="10" height="10" rx="1" fill="#0d6a30" opacity="0.4" />
    </g>

    <!-- Grocery Bag -->
    <g transform="translate(250, 170)">
      <path d="M-20,0 L20,0 L15,40 L-15,40 Z" fill="none" stroke="#0d6a30" stroke-width="2" />
      <path d="M-10,-15 C-10,0 -20,0 -20,0 M10,-15 C10,0 20,0 20,0" stroke="#0d6a30" stroke-width="1.5" fill="none" />
      <path d="M0,10 L0,30 M-10,15 L10,15 M-10,25 L10,25" stroke="#0d6a30" stroke-width="1" />
    </g>

    <!-- Weekly Planner -->
    <g transform="translate(100, 260)">
      <rect x="-50" y="-20" width="100" height="40" rx="3" fill="none" stroke="#0d6a30" stroke-width="2" />
      <line x1="-50" y1="-10" x2="50" y2="-10" stroke="#0d6a30" stroke-width="1" />
      <line x1="-50" y1="0" x2="50" y2="0" stroke="#0d6a30" stroke-width="1" />
      <line x1="-50" y1="10" x2="50" y2="10" stroke="#0d6a30" stroke-width="1" />
      
      <line x1="-35" y1="-20" x2="-35" y2="20" stroke="#0d6a30" stroke-width="1" />
      <line x1="-20" y1="-20" x2="-20" y2="20" stroke="#0d6a30" stroke-width="1" />
      <line x1="-5" y1="-20" x2="-5" y2="20" stroke="#0d6a30" stroke-width="1" />
      <line x1="10" y1="-20" x2="10" y2="20" stroke="#0d6a30" stroke-width="1" />
      <line x1="25" y1="-20" x2="25" y2="20" stroke="#0d6a30" stroke-width="1" />
      <line x1="40" y1="-20" x2="40" y2="20" stroke="#0d6a30" stroke-width="1" />
      
      <circle cx="-42" cy="-5" r="2" fill="#0d6a30" />
      <circle cx="-27" cy="5" r="2" fill="#0d6a30" />
      <circle cx="3" cy="-5" r="2" fill="#0d6a30" />
      <circle cx="17" cy="5" r="2" fill="#0d6a30" />
      <circle cx="32" cy="-5" r="2" fill="#0d6a30" />
    </g>

    <!-- Recipe Card -->
    <g transform="translate(220, 260)">
      <rect x="-20" y="-25" width="40" height="50" rx="2" fill="none" stroke="#0d6a30" stroke-width="1.5" />
      <line x1="-15" y1="-15" x2="15" y2="-15" stroke="#0d6a30" stroke-width="1" />
      <line x1="-15" y1="-10" x2="10" y2="-10" stroke="#0d6a30" stroke-width="1" />
      <line x1="-15" y1="-5" x2="15" y2="-5" stroke="#0d6a30" stroke-width="1" />
      <line x1="-15" y1="0" x2="5" y2="0" stroke="#0d6a30" stroke-width="1" />
      <line x1="-15" y1="10" x2="15" y2="10" stroke="#0d6a30" stroke-width="1" />
      <line x1="-15" y1="15" x2="10" y2="15" stroke="#0d6a30" stroke-width="1" />
    </g>
  </g>
</svg>
