<?xml version="1.0" encoding="UTF-8"?>
<svg width="320" height="320" viewBox="0 0 320 320" fill="none" xmlns="http://www.w3.org/2000/svg">
  <!-- Meal planning elements -->
  <g opacity="0.5">
    <!-- Calendar -->
    <g transform="translate(30, 30)">
      <rect x="0" y="0" width="120" height="120" rx="5" fill="none" stroke="#0d6a30" stroke-width="3" />
      <line x1="0" y1="30" x2="120" y2="30" stroke="#0d6a30" stroke-width="2" />
      <line x1="40" y1="0" x2="40" y2="120" stroke="#0d6a30" stroke-width="1.5" />
      <line x1="80" y1="0" x2="80" y2="120" stroke="#0d6a30" stroke-width="1.5" />
      <line x1="0" y1="60" x2="120" y2="60" stroke="#0d6a30" stroke-width="1.5" />
      <line x1="0" y1="90" x2="120" y2="90" stroke="#0d6a30" stroke-width="1.5" />
      <circle cx="20" cy="45" r="8" fill="#0d6a30" opacity="0.8" />
      <circle cx="60" cy="75" r="8" fill="#0d6a30" opacity="0.8" />
      <circle cx="100" cy="105" r="8" fill="#0d6a30" opacity="0.8" />
    </g>
    
    <!-- Plate with food -->
    <g transform="translate(200, 60)">
      <circle cx="0" cy="0" r="40" fill="none" stroke="#0d6a30" stroke-width="3" />
      <circle cx="0" cy="0" r="30" fill="none" stroke="#0d6a30" stroke-width="1.5" stroke-dasharray="3 3" />
      <path d="M-15,-5 C-15,-5 -10,10 0,10 C10,10 15,-5 15,-5" stroke="#0d6a30" stroke-width="2" />
      <circle cx="-10" cy="-10" r="5" fill="#0d6a30" opacity="0.6" />
      <circle cx="10" cy="-10" r="5" fill="#0d6a30" opacity="0.6" />
    </g>
    
    <!-- Clock -->
    <g transform="translate(80, 190)">
      <circle cx="0" cy="0" r="35" fill="none" stroke="#0d6a30" stroke-width="3" />
      <line x1="0" y1="0" x2="0" y2="-20" stroke="#0d6a30" stroke-width="2.5" />
      <line x1="0" y1="0" x2="15" y2="10" stroke="#0d6a30" stroke-width="2.5" />
      <circle cx="0" cy="0" r="3" fill="#0d6a30" />
      <line x1="0" y1="-35" x2="0" y2="-30" stroke="#0d6a30" stroke-width="2" />
      <line x1="35" y1="0" x2="30" y2="0" stroke="#0d6a30" stroke-width="2" />
      <line x1="0" y1="35" x2="0" y2="30" stroke="#0d6a30" stroke-width="2" />
      <line x1="-35" y1="0" x2="-30" y2="0" stroke="#0d6a30" stroke-width="2" />
    </g>
    
    <!-- Clipboard with meal plan -->
    <g transform="translate(200, 200)">
      <rect x="-30" y="-40" width="60" height="80" rx="3" fill="none" stroke="#0d6a30" stroke-width="2.5" />
      <line x1="-20" y1="-25" x2="20" y2="-25" stroke="#0d6a30" stroke-width="1.5" />
      <line x1="-20" y1="-15" x2="20" y2="-15" stroke="#0d6a30" stroke-width="1.5" />
      <line x1="-20" y1="-5" x2="20" y2="-5" stroke="#0d6a30" stroke-width="1.5" />
      <line x1="-20" y1="5" x2="20" y2="5" stroke="#0d6a30" stroke-width="1.5" />
      <line x1="-20" y1="15" x2="10" y2="15" stroke="#0d6a30" stroke-width="1.5" />
      <line x1="-20" y1="25" x2="0" y2="25" stroke="#0d6a30" stroke-width="1.5" />
    </g>
  </g>
</svg>
