<?xml version="1.0" encoding="UTF-8"?>
<svg width="280" height="280" viewBox="0 0 280 280" fill="none" xmlns="http://www.w3.org/2000/svg">
  <!-- Recipe Pattern Elements -->
  <g opacity="0.5">
    <!-- Recipe Book -->
    <g transform="translate(50, 50)">
      <path d="M0,0 L60,0 L60,70 L0,70 L0,0 Z" fill="none" stroke="#0d6a30" stroke-width="2" />
      <path d="M30,0 L30,70" stroke="#0d6a30" stroke-width="1.5" />
      <path d="M5,10 L25,10 M5,20 L20,20 M5,30 L25,30 M5,40 L15,40 M5,50 L20,50 M5,60 L25,60" stroke="#0d6a30" stroke-width="1" />
      <path d="M35,10 L55,10 M35,20 L50,20 M35,30 L55,30 M35,40 L45,40 M35,50 L50,50 M35,60 L55,60" stroke="#0d6a30" stroke-width="1" />
    </g>

    <!-- Pot -->
    <g transform="translate(150, 40)">
      <ellipse cx="0" cy="0" rx="25" ry="10" fill="none" stroke="#0d6a30" stroke-width="1.5" />
      <path d="M-25,0 L-25,30 C-25,35.5 -15,40 0,40 C15,40 25,35.5 25,30 L25,0" fill="none" stroke="#0d6a30" stroke-width="1.5" />
      <path d="M-25,30 C-25,35.5 -15,40 0,40 C15,40 25,35.5 25,30" fill="none" stroke="#0d6a30" stroke-width="1.5" />
      <path d="M-30,-5 L-20,-5 L-20,0 M30,-5 L20,-5 L20,0" stroke="#0d6a30" stroke-width="1.5" />
    </g>

    <!-- Spoon -->
    <g transform="translate(220, 50)">
      <ellipse cx="0" cy="0" rx="5" ry="10" fill="none" stroke="#0d6a30" stroke-width="1.5" />
      <path d="M0,10 L0,40" stroke="#0d6a30" stroke-width="1.5" />
    </g>

    <!-- Fork -->
    <g transform="translate(240, 50)">
      <path d="M0,0 L0,15 M-5,0 L-5,10 L0,15 M5,0 L5,10 L0,15 M0,15 L0,40" stroke="#0d6a30" stroke-width="1.5" />
    </g>

    <!-- Cutting Board -->
    <g transform="translate(70, 150)">
      <rect x="-30" y="-20" width="60" height="40" rx="3" fill="none" stroke="#0d6a30" stroke-width="1.5" />
      <line x1="-20" y1="-15" x2="20" y2="-15" stroke="#0d6a30" stroke-width="1" />
      <line x1="-15" y1="-10" x2="15" y2="-10" stroke="#0d6a30" stroke-width="1" />
      <line x1="-25" y1="-5" x2="25" y2="-5" stroke="#0d6a30" stroke-width="1" />
      <rect x="-25" y="5" width="10" height="5" rx="1" fill="#0d6a30" opacity="0.5" />
      <rect x="-10" y="5" width="15" height="5" rx="1" fill="#0d6a30" opacity="0.5" />
      <rect x="10" y="5" width="10" height="5" rx="1" fill="#0d6a30" opacity="0.5" />
      <circle cx="-20" cy="15" r="2" fill="#0d6a30" />
    </g>

    <!-- Knife -->
    <g transform="translate(170, 150)">
      <path d="M-25,0 L25,-10 L25,-5 L-25,5 Z" fill="none" stroke="#0d6a30" stroke-width="1.5" />
      <path d="M-25,0 L-25,5 L-35,15 L-30,20 L-20,10 L-20,5 Z" fill="none" stroke="#0d6a30" stroke-width="1.5" />
    </g>

    <!-- Timer -->
    <g transform="translate(220, 160)">
      <circle cx="0" cy="0" r="20" fill="none" stroke="#0d6a30" stroke-width="1.5" />
      <circle cx="0" cy="0" r="2" fill="#0d6a30" />
      <path d="M0,0 L0,-10 M0,0 L10,5" stroke="#0d6a30" stroke-width="1.5" />
      <path d="M0,-25 L5,-20 L-5,-20 Z" fill="#0d6a30" />
    </g>

    <!-- Measuring Cup -->
    <g transform="translate(50, 220)">
      <path d="M-10,0 L10,0 L15,30 L-15,30 Z" fill="none" stroke="#0d6a30" stroke-width="1.5" />
      <path d="M-10,10 L10,10 M-12,20 L12,20" stroke="#0d6a30" stroke-width="1" />
      <path d="M20,15 L10,15" stroke="#0d6a30" stroke-width="1" />
      <path d="M20,15 A5,10 0 0 0 20,25" stroke="#0d6a30" stroke-width="1.5" fill="none" />
    </g>

    <!-- Whisk -->
    <g transform="translate(130, 220)">
      <path d="M0,0 L0,40 M0,30 C-10,20 -5,10 0,15 C5,10 10,20 0,30" stroke="#0d6a30" stroke-width="1.5" fill="none" />
    </g>

    <!-- Mixing Bowl -->
    <g transform="translate(210, 230)">
      <ellipse cx="0" cy="0" rx="20" ry="10" fill="none" stroke="#0d6a30" stroke-width="1.5" />
      <path d="M-20,0 C-20,15 -10,30 0,30 C10,30 20,15 20,0" fill="none" stroke="#0d6a30" stroke-width="1.5" />
      <path d="M-15,10 C-10,15 10,15 15,10" stroke="#0d6a30" stroke-width="1" fill="none" />
    </g>
  </g>
</svg>
