<?xml version="1.0" encoding="UTF-8"?>
<svg width="280" height="280" viewBox="0 0 280 280" fill="none" xmlns="http://www.w3.org/2000/svg">
  <!-- Recipe elements -->
  <g opacity="0.5">
    <!-- Pot -->
    <g transform="translate(40, 40)">
      <path d="M0,20 C0,20 0,10 20,10 L60,10 C80,10 80,20 80,20 L80,60 C80,70 70,70 60,70 L20,70 C10,70 0,70 0,60 L0,20 Z" fill="none" stroke="#0d6a30" stroke-width="3" />
      <path d="M20,10 C20,10 20,0 30,0 L50,0 C60,0 60,10 60,10" stroke="#0d6a30" stroke-width="3" />
      <path d="M10,30 C10,30 35,40 70,30" stroke="#0d6a30" stroke-width="2" stroke-dasharray="4 4" />
    </g>
    
    <!-- Cookbook -->
    <g transform="translate(150, 30)">
      <rect x="0" y="0" width="60" height="80" rx="2" fill="none" stroke="#0d6a30" stroke-width="3" />
      <line x1="30" y1="0" x2="30" y2="80" stroke="#0d6a30" stroke-width="1" />
      <line x1="5" y1="20" x2="25" y2="20" stroke="#0d6a30" stroke-width="1.5" />
      <line x1="5" y1="30" x2="25" y2="30" stroke="#0d6a30" stroke-width="1.5" />
      <line x1="5" y1="40" x2="15" y2="40" stroke="#0d6a30" stroke-width="1.5" />
      <line x1="35" y1="20" x2="55" y2="20" stroke="#0d6a30" stroke-width="1.5" />
      <line x1="35" y1="30" x2="55" y2="30" stroke="#0d6a30" stroke-width="1.5" />
      <line x1="35" y1="40" x2="45" y2="40" stroke="#0d6a30" stroke-width="1.5" />
    </g>
    
    <!-- Cutlery -->
    <g transform="translate(50, 150)">
      <path d="M0,0 C0,0 5,5 5,20 L10,50 L0,50 L-5,20 C-5,5 0,0 0,0 Z" fill="#0d6a30" opacity="0.7" />
      <rect x="20" y="0" width="5" height="50" rx="2.5" fill="#0d6a30" opacity="0.7" />
      <path d="M40,0 L55,0 L60,50 L35,50 Z" fill="#0d6a30" opacity="0.7" />
    </g>
    
    <!-- Chef's Hat -->
    <g transform="translate(180, 150)">
      <path d="M0,30 C0,30 0,0 20,0 C40,0 40,30 40,30 L40,50 L0,50 Z" fill="none" stroke="#0d6a30" stroke-width="2.5" />
      <path d="M10,50 L10,60 L30,60 L30,50" stroke="#0d6a30" stroke-width="2.5" />
    </g>
  </g>
</svg>
