<?xml version="1.0" encoding="UTF-8"?>
<svg width="200" height="200" viewBox="0 0 200 200" fill="none" xmlns="http://www.w3.org/2000/svg">
  <!-- Settings elements -->
  <g opacity="0.5">
    <!-- Gear -->
    <g transform="translate(50, 50)">
      <circle cx="0" cy="0" r="25" fill="none" stroke="#0d6a30" stroke-width="3" />
      <circle cx="0" cy="0" r="10" fill="none" stroke="#0d6a30" stroke-width="2" />
      <path d="M0,-40 L0,-30 M0,30 L0,40 M-40,0 L-30,0 M30,0 L40,0 M-28,-28 L-21,-21 M-28,28 L-21,21 M28,-28 L21,-21 M28,28 L21,21" stroke="#0d6a30" stroke-width="5" />
    </g>
    
    <!-- Toggle -->
    <g transform="translate(150, 40)">
      <rect x="-30" y="-15" width="60" height="30" rx="15" fill="none" stroke="#0d6a30" stroke-width="3" />
      <circle cx="15" cy="0" r="10" fill="#0d6a30" opacity="0.8" />
    </g>
    
    <!-- Slider -->
    <g transform="translate(50, 130)">
      <line x1="-40" y1="0" x2="40" y2="0" stroke="#0d6a30" stroke-width="3" />
      <circle cx="10" cy="0" r="8" fill="#0d6a30" opacity="0.8" />
    </g>
    
    <!-- Wrench -->
    <g transform="translate(140, 120)">
      <path d="M-15,-15 C-5,-25 15,-25 25,-15 C35,-5 35,15 25,25 L10,10 Z" fill="none" stroke="#0d6a30" stroke-width="3" />
      <path d="M10,10 L25,25" stroke="#0d6a30" stroke-width="3" />
    </g>
    
    <!-- Menu -->
    <g transform="translate(140, 170)">
      <line x1="-20" y1="-10" x2="20" y2="-10" stroke="#0d6a30" stroke-width="3" />
      <line x1="-20" y1="0" x2="20" y2="0" stroke="#0d6a30" stroke-width="3" />
      <line x1="-20" y1="10" x2="20" y2="10" stroke="#0d6a30" stroke-width="3" />
    </g>
  </g>
</svg>
