<?xml version="1.0" encoding="UTF-8"?>
<svg width="200" height="200" viewBox="0 0 200 200" fill="none" xmlns="http://www.w3.org/2000/svg">
  <!-- Settings Pattern Elements -->
  <g opacity="0.5">
    <!-- Large Gear -->
    <g transform="translate(50, 50)">
      <circle cx="0" cy="0" r="20" fill="none" stroke="#0d6a30" stroke-width="2" />
      <circle cx="0" cy="0" r="10" fill="none" stroke="#0d6a30" stroke-width="1" />
      <path d="M0,-20 L0,-30 M14.14,-14.14 L21.21,-21.21 M20,0 L30,0 M14.14,14.14 L21.21,21.21 M0,20 L0,30 M-14.14,14.14 L-21.21,21.21 M-20,0 L-30,0 M-14.14,-14.14 L-21.21,-21.21" stroke="#0d6a30" stroke-width="2" stroke-linecap="round" />
    </g>

    <!-- Small Gear -->
    <g transform="translate(140, 40)">
      <circle cx="0" cy="0" r="15" fill="none" stroke="#0d6a30" stroke-width="1.5" />
      <circle cx="0" cy="0" r="7" fill="none" stroke="#0d6a30" stroke-width="1" />
      <path d="M0,-15 L0,-20 M10.61,-10.61 L14.14,-14.14 M15,0 L20,0 M10.61,10.61 L14.14,14.14 M0,15 L0,20 M-10.61,10.61 L-14.14,14.14 M-15,0 L-20,0 M-10.61,-10.61 L-14.14,-14.14" stroke="#0d6a30" stroke-width="1.5" stroke-linecap="round" />
    </g>

    <!-- Slider -->
    <g transform="translate(50, 120)">
      <line x1="-40" y1="0" x2="40" y2="0" stroke="#0d6a30" stroke-width="2" />
      <circle cx="10" cy="0" r="8" fill="none" stroke="#0d6a30" stroke-width="1.5" />
      <path d="M-30,3 L-30,-3 M-20,3 L-20,-3 M-10,3 L-10,-3 M0,3 L0,-3 M10,3 L10,-3 M20,3 L20,-3 M30,3 L30,-3" stroke="#0d6a30" stroke-width="1" />
    </g>

    <!-- Toggle Switch -->
    <g transform="translate(150, 110)">
      <rect x="-20" y="-10" width="40" height="20" rx="10" fill="none" stroke="#0d6a30" stroke-width="1.5" />
      <circle cx="10" cy="0" r="7" fill="#0d6a30" opacity="0.7" />
    </g>

    <!-- Radio Buttons -->
    <g transform="translate(40, 160)">
      <circle cx="0" cy="0" r="10" fill="none" stroke="#0d6a30" stroke-width="1.5" />
      <circle cx="0" cy="0" r="5" fill="#0d6a30" opacity="0.7" />
      
      <circle cx="30" cy="0" r="10" fill="none" stroke="#0d6a30" stroke-width="1.5" />
      
      <circle cx="60" cy="0" r="10" fill="none" stroke="#0d6a30" stroke-width="1.5" />
    </g>

    <!-- Checkbox -->
    <g transform="translate(160, 160)">
      <rect x="-10" y="-10" width="20" height="20" rx="2" fill="none" stroke="#0d6a30" stroke-width="1.5" />
      <path d="M-5,0 L0,5 L5,-5" stroke="#0d6a30" stroke-width="2" />
    </g>

    <!-- Dropdown -->
    <g transform="translate(110, 80)">
      <rect x="-25" y="-10" width="50" height="20" rx="2" fill="none" stroke="#0d6a30" stroke-width="1.5" />
      <path d="M15,-2 L20,3 L25,-2" stroke="#0d6a30" stroke-width="1.5" />
    </g>
  </g>
</svg>
