<?xml version="1.0" encoding="UTF-8"?>
<svg width="250" height="250" viewBox="0 0 250 250" fill="none" xmlns="http://www.w3.org/2000/svg">
  <!-- Tips Pattern Elements -->
  <g opacity="0.5">
    <!-- Light Bulb -->
    <g transform="translate(50, 50)">
      <circle cx="0" cy="0" r="15" fill="none" stroke="#0d6a30" stroke-width="1.5" />
      <path d="M-10,10 C-10,15 10,15 10,10" stroke="#0d6a30" stroke-width="1.5" fill="none" />
      <path d="M-5,15 L-5,20 M5,15 L5,20" stroke="#0d6a30" stroke-width="1.5" />
      <path d="M-5,20 L5,20" stroke="#0d6a30" stroke-width="1.5" />
      <path d="M0,-15 L0,-20" stroke="#0d6a30" stroke-width="1" />
      <path d="M10,-10 L14,-14" stroke="#0d6a30" stroke-width="1" />
      <path d="M15,0 L20,0" stroke="#0d6a30" stroke-width="1" />
      <path d="M10,10 L14,14" stroke="#0d6a30" stroke-width="1" />
      <path d="M-10,-10 L-14,-14" stroke="#0d6a30" stroke-width="1" />
      <path d="M-15,0 L-20,0" stroke="#0d6a30" stroke-width="1" />
      <path d="M-10,10 L-14,14" stroke="#0d6a30" stroke-width="1" />
    </g>

    <!-- Information -->
    <g transform="translate(120, 40)">
      <circle cx="0" cy="0" r="20" fill="none" stroke="#0d6a30" stroke-width="2" />
      <path d="M0,-10 L0,-5" stroke="#0d6a30" stroke-width="3" stroke-linecap="round" />
      <path d="M0,0 L0,10" stroke="#0d6a30" stroke-width="3" stroke-linecap="round" />
    </g>

    <!-- Green Recycle -->
    <g transform="translate(200, 40)">
      <path d="M0,15 L10,0 L20,15 Z" fill="none" stroke="#0d6a30" stroke-width="1.5" />
      <path d="M-5,-5 L5,15 L-15,5 Z" fill="none" stroke="#0d6a30" stroke-width="1.5" />
      <path d="M15,-5 L-5,5 L25,5 Z" fill="none" stroke="#0d6a30" stroke-width="1.5" />
      <path d="M0,15 L10,0 M-5,-5 L5,15 M15,-5 L-5,5" stroke="#0d6a30" stroke-width="1.5" />
    </g>

    <!-- Compost Bin -->
    <g transform="translate(70, 120)">
      <rect x="-15" y="-20" width="30" height="40" rx="2" fill="none" stroke="#0d6a30" stroke-width="1.5" />
      <path d="M-15,-10 L15,-10" stroke="#0d6a30" stroke-width="1" />
      <path d="M-10,-5 C-5,10 5,10 10,-5" stroke="#0d6a30" stroke-width="1" fill="none" />
      <path d="M-10,0 C-5,15 5,15 10,0" stroke="#0d6a30" stroke-width="1" fill="none" />
      <path d="M-10,5 C-5,20 5,20 10,5" stroke="#0d6a30" stroke-width="1" fill="none" />
    </g>

    <!-- Water Drop -->
    <g transform="translate(150, 130)">
      <path d="M0,-20 C15,0 20,15 0,20 C-20,15 -15,0 0,-20" fill="none" stroke="#0d6a30" stroke-width="2" />
      <path d="M-5,0 C-5,10 5,10 5,0 C5,-10 -5,-10 -5,0" fill="none" stroke="#0d6a30" stroke-width="1" />
    </g>

    <!-- Leaf -->
    <g transform="translate(210, 120)">
      <path d="M0,0 C20,-20 30,-10 20,10 C10,30 -10,20 0,0" fill="none" stroke="#0d6a30" stroke-width="1.5" />
      <path d="M0,0 L20,10" stroke="#0d6a30" stroke-width="1" />
      <path d="M5,-5 C10,0 15,5 10,10" stroke="#0d6a30" stroke-width="1" fill="none" />
    </g>

    <!-- Checklist -->
    <g transform="translate(50, 200)">
      <rect x="-25" y="-25" width="50" height="50" rx="2" fill="none" stroke="#0d6a30" stroke-width="1.5" />
      <rect x="-20" y="-15" width="10" height="10" rx="1" fill="none" stroke="#0d6a30" stroke-width="1" />
      <path d="M-18,-10 L-15,-7 L-12,-13" stroke="#0d6a30" stroke-width="1" />
      <line x1="-5" y1="-10" x2="15" y2="-10" stroke="#0d6a30" stroke-width="1.5" />
      
      <rect x="-20" y="0" width="10" height="10" rx="1" fill="none" stroke="#0d6a30" stroke-width="1" />
      <path d="M-18,5 L-15,8 L-12,2" stroke="#0d6a30" stroke-width="1" />
      <line x1="-5" y1="5" x2="15" y2="5" stroke="#0d6a30" stroke-width="1.5" />
    </g>

    <!-- Magnifying Glass -->
    <g transform="translate(130, 200)">
      <circle cx="0" cy="0" r="15" fill="none" stroke="#0d6a30" stroke-width="1.5" />
      <path d="M10,10 L20,20" stroke="#0d6a30" stroke-width="2" />
      <path d="M-5,-5 L5,5" stroke="#0d6a30" stroke-width="0.8" />
      <path d="M-5,5 L5,-5" stroke="#0d6a30" stroke-width="0.8" />
    </g>

    <!-- Star -->
    <g transform="translate(200, 200)">
      <path d="M0,-15 L3,-5 L14,-5 L5,2 L8,12 L0,6 L-8,12 L-5,2 L-14,-5 L-3,-5 Z" fill="none" stroke="#0d6a30" stroke-width="1.5" />
    </g>
  </g>
</svg>
