<?xml version="1.0" encoding="UTF-8"?>
<svg width="250" height="250" viewBox="0 0 250 250" fill="none" xmlns="http://www.w3.org/2000/svg">
  <!-- Tips & Sustainability elements -->
  <g opacity="0.5">
    <!-- Recycling Symbol -->
    <g transform="translate(50, 50)">
      <path d="M0,-30 L10,-15 L-10,-15 Z" fill="#0d6a30" opacity="0.8" />
      <path d="M26,15 L11,5 L21,-15 Z" fill="#0d6a30" opacity="0.8" />
      <path d="M-26,15 L-11,5 L-21,-15 Z" fill="#0d6a30" opacity="0.8" />
      <path d="M-7,-20 C-20,-10 -25,10 -15,25 M15,25 C30,15 30,-10 14,-17 M-17,0 C-10,-15 10,-15 17,0" stroke="#0d6a30" stroke-width="4" fill="none" />
    </g>
    
    <!-- Leaf -->
    <g transform="translate(150, 60)">
      <path d="M0,0 C0,0 30,10 30,30 C30,45 15,50 0,50 C-15,50 -30,45 -30,30 C-30,10 0,0 0,0 Z" fill="#0d6a30" opacity="0.6" />
      <path d="M0,0 L0,50" stroke="#FFFFFF" stroke-width="2" opacity="0.7" />
      <path d="M-20,15 C-20,15 0,25 20,15" stroke="#FFFFFF" stroke-width="1.5" opacity="0.7" />
      <path d="M-15,30 C-15,30 0,40 15,30" stroke="#FFFFFF" stroke-width="1.5" opacity="0.7" />
    </g>
    
    <!-- Lightbulb -->
    <g transform="translate(60, 150)">
      <circle cx="0" cy="-15" r="20" fill="#0d6a30" opacity="0.5" />
      <path d="M0,5 L0,20" stroke="#0d6a30" stroke-width="3" />
      <path d="M-7,10 L7,10" stroke="#0d6a30" stroke-width="2" />
      <path d="M-5,15 L5,15" stroke="#0d6a30" stroke-width="2" />
      <path d="M-3,20 L3,20" stroke="#0d6a30" stroke-width="2" />
    </g>
    
    <!-- Water drop -->
    <g transform="translate(150, 160)">
      <path d="M0,-30 C0,-30 -20,0 -20,20 C-20,35 -10,45 0,45 C10,45 20,35 20,20 C20,0 0,-30 0,-30 Z" fill="#0d6a30" opacity="0.5" />
      <path d="M0,0 C-5,5 -8,15 -8,20 C-8,25 -4,30 0,30 C4,30 8,25 8,20 C8,15 5,5 0,0 Z" fill="#FFFFFF" opacity="0.3" />
    </g>
    
    <!-- Green Energy -->
    <g transform="translate(200, 100)">
      <path d="M-5,-20 L5,-20 L-5,0 L5,0 L-10,20 L0,5 L-10,5 Z" fill="#0d6a30" opacity="0.8" />
    </g>
  </g>
</svg>
